<svg width="11" height="12" viewBox="0 0 11 12" fill="none" xmlns="http://www.w3.org/2000/svg">
<path d="M9.375 5.25H8.8125V3.5625C8.8125 1.59844 7.21406 0 5.25 0C3.28594 0 1.6875 1.59844 1.6875 3.5625V5.25H1.125C0.503906 5.25 0 5.75391 0 6.375V10.875C0 11.4961 0.503906 12 1.125 12H9.375C9.99609 12 10.5 11.4961 10.5 10.875V6.375C10.5 5.75391 9.99609 5.25 9.375 5.25ZM6.1875 9.1875C6.1875 9.70547 5.76797 10.125 5.25 10.125C4.73203 10.125 4.3125 9.70547 4.3125 9.1875V8.0625C4.3125 7.54453 4.73203 7.125 5.25 7.125C5.76797 7.125 6.1875 7.54453 6.1875 8.0625V9.1875ZM6.9375 5.25H3.5625V3.5625C3.5625 2.63203 4.31953 1.875 5.25 1.875C6.18047 1.875 6.9375 2.63203 6.9375 3.5625V5.25Z" fill="#74788D"/>
</svg>
