<svg width="30" height="30" viewBox="0 0 30 30" fill="none" xmlns="http://www.w3.org/2000/svg">
<path d="M12.5 4.0001C7.08752 5.25484 3.40157 10.2729 3.82305 15.8129C4.24453 21.3529 8.6472 25.7556 14.1872 26.1771C19.7272 26.5985 24.7453 22.9126 26 17.5001C26 16.8097 25.4404 16.2501 24.75 16.2501H16.25C14.8693 16.2501 13.75 15.1308 13.75 13.7501V5.0001C13.7186 4.70097 13.5688 4.42685 13.3339 4.23896C13.099 4.05107 12.7987 3.96505 12.5 4.0001" stroke="#111127" stroke-width="1.875" stroke-linecap="round" stroke-linejoin="round"/>
<path d="M18.75 4.375C21.9648 5.50695 24.493 8.03524 25.625 11.25H20C19.3096 11.25 18.75 10.6904 18.75 10V4.375" stroke="#111127" stroke-width="1.875" stroke-linecap="round" stroke-linejoin="round"/>
</svg>
